<svg xmlns="http://www.w3.org/2000/svg" xmlns:xlink="http://www.w3.org/1999/xlink" width="728.763" height="370.893" viewBox="0 0 728.763 370.893">
  <defs>
    <clipPath id="clip-path">
      <rect id="Rectángulo_28812" data-name="Rectángulo 28812" width="728.762" height="370.893" transform="translate(318.599 -2.272)" fill="none"/>
    </clipPath>
  </defs>
  <g id="Grupo_26309" data-name="Grupo 26309" transform="translate(-318.599 2.272)" opacity="0.616">
    <path id="Trazado_67686" data-name="Trazado 67686" d="M934.583,8.672l112.779,98.411v-.616L934.887,8.318Z" fill="#939598"/>
    <g id="Grupo_26308" data-name="Grupo 26308">
      <g id="Grupo_26839" data-name="Grupo 26839">
        <g id="Grupo_26838" data-name="Grupo 26838" clip-path="url(#clip-path)">
          <g id="Grupo_26307" data-name="Grupo 26307">
            <path id="Trazado_67687" data-name="Trazado 67687" d="M928.471,2.23a6.992,6.992,0,0,0,.822,10.718,9.4,9.4,0,0,0,12.132-.73,7,7,0,0,0-.83-10.718,9.4,9.4,0,0,0-12.124.73" fill="#939598"/>
            <path id="Trazado_67688" data-name="Trazado 67688" d="M1047.361,89.08a4.672,4.672,0,0,0-5.1.9,3.479,3.479,0,0,0,.411,5.332,4.737,4.737,0,0,0,4.692.547Z" fill="#939598"/>
            <path id="Trazado_67689" data-name="Trazado 67689" d="M318.6,190.831v.539l201.639,155.5.3-.308Z" fill="#d1d3d4"/>
            <path id="Trazado_67691" data-name="Trazado 67691" d="M396.238,250.974a2.324,2.324,0,0,0-.044,3.287,2.3,2.3,0,0,0,.318.272,3.119,3.119,0,0,0,4.023-.246,2.317,2.317,0,0,0-.274-3.552,3.117,3.117,0,0,0-4.023.238" fill="#d1d3d4"/>
            <path id="Trazado_67692" data-name="Trazado 67692" d="M1047.362,275.771,758.651,53.129l-.3.308,289.011,222.874Z" fill="#d1d3d4"/>
            <path id="Trazado_67693" data-name="Trazado 67693" d="M752.022,48.288a7,7,0,0,0-.138,9.9,6.918,6.918,0,0,0,.96.823,9.407,9.407,0,0,0,12.128-.73,7,7,0,0,0-.822-10.718,9.4,9.4,0,0,0-12.128.726" fill="#d1d3d4"/>
            <path id="Trazado_67694" data-name="Trazado 67694" d="M865.822,136.044a3.476,3.476,0,0,0,.411,5.328,4.672,4.672,0,0,0,6.029-.36,3.483,3.483,0,0,0,.065-4.926,3.438,3.438,0,0,0-.476-.409,4.674,4.674,0,0,0-6.029.367" fill="#d1d3d4"/>
            <path id="Trazado_67695" data-name="Trazado 67695" d="M953.683,203.8a2.317,2.317,0,0,0,.27,3.556,3.12,3.12,0,0,0,4.027-.242,2.322,2.322,0,0,0,.044-3.283,2.289,2.289,0,0,0-.318-.273,3.121,3.121,0,0,0-4.023.242" fill="#d1d3d4"/>
            <path id="Trazado_67696" data-name="Trazado 67696" d="M496.356,86.47,815.688,332.726l-.3.3L496.053,86.778Z" fill="#bcbec0"/>
            <path id="Trazado_67697" data-name="Trazado 67697" d="M809.065,327.888a7,7,0,0,0,.822,10.718,9.4,9.4,0,0,0,12.128-.73,7,7,0,0,0-.822-10.718,9.4,9.4,0,0,0-12.128.73" fill="#bcbec0"/>
            <path id="Trazado_67700" data-name="Trazado 67700" d="M691.388,237.138a2.322,2.322,0,0,0-.049,3.285,2.2,2.2,0,0,0,.319.274,3.129,3.129,0,0,0,4.027-.242,2.322,2.322,0,0,0,.044-3.283,2.292,2.292,0,0,0-.318-.273,3.121,3.121,0,0,0-4.023.239" fill="#bcbec0"/>
            <path id="Trazado_67701" data-name="Trazado 67701" d="M1047.362,54.306l-19.192,84.916.448.077,18.744-82.912Z" fill="#bcbec0"/>
            <path id="Trazado_67702" data-name="Trazado 67702" d="M1030.076,131.809c-4.654-.822-9.184,1.849-10.114,5.963s2.088,8.117,6.743,8.939,9.184-1.846,10.114-5.959-2.088-8.117-6.743-8.942" fill="#bcbec0"/>
            <path id="Trazado_67703" data-name="Trazado 67703" d="M697.214,114.614,1016.55,360.87l-.3.308L696.911,114.922Z" fill="#bcbec0"/>
            <path id="Trazado_67704" data-name="Trazado 67704" d="M1009.922,356.031a7,7,0,0,0,.826,10.718,9.4,9.4,0,0,0,12.128-.73,7,7,0,0,0-.822-10.718,9.413,9.413,0,0,0-12.132.73" fill="#bcbec0"/>
            <path id="Trazado_67706" data-name="Trazado 67706" d="M804.384,197.527a3.478,3.478,0,0,0,.415,5.332,4.669,4.669,0,0,0,6.029-.363,3.482,3.482,0,0,0-.411-5.332,4.679,4.679,0,0,0-6.033.363" fill="#bcbec0"/>
            <path id="Trazado_67707" data-name="Trazado 67707" d="M892.252,265.285a2.317,2.317,0,0,0,.27,3.556,3.124,3.124,0,0,0,4.03-.243,2.322,2.322,0,0,0,.044-3.283,2.291,2.291,0,0,0-.318-.273,3.121,3.121,0,0,0-4.023.242" fill="#bcbec0"/>
            <path id="Trazado_67708" data-name="Trazado 67708" d="M731.143,77.129l-373.806,112.6.137.36L731.28,77.49Z" fill="#939598"/>
            <path id="Trazado_67709" data-name="Trazado 67709" d="M364.989,187.62c1.428,3.7-.81,7.72-5,8.983s-8.736-.716-10.164-4.414.81-7.72,5-8.983,8.736.716,10.164,4.414" fill="#939598"/>
            <path id="Trazado_67710" data-name="Trazado 67710" d="M605.591,115.151a3.441,3.441,0,0,1-2.149,4.366,3.332,3.332,0,0,1-.338.1,4.12,4.12,0,0,1-5.053-2.2,3.436,3.436,0,0,1,2.133-4.366,3.5,3.5,0,0,1,.35-.1,4.129,4.129,0,0,1,5.057,2.2" fill="#939598"/>
            <path id="Trazado_67711" data-name="Trazado 67711" d="M502.733,146.129a2.292,2.292,0,0,1-1.423,2.912,2.15,2.15,0,0,1-.234.067,2.752,2.752,0,0,1-3.376-1.464,2.3,2.3,0,0,1,1.442-2.915c.071-.024.143-.045.216-.062a2.749,2.749,0,0,1,3.375,1.462" fill="#939598"/>
            <path id="Trazado_67712" data-name="Trazado 67712" d="M318.6,11.374,363.9-2.272h-1.338L318.6,10.974Z" fill="#d1d3d4"/>
            <path id="Trazado_67713" data-name="Trazado 67713" d="M357.952-.68a2.294,2.294,0,0,1-1.426,2.914,2.337,2.337,0,0,1-.231.066A2.75,2.75,0,0,1,352.919.836a2.293,2.293,0,0,1,1.427-2.913,2.148,2.148,0,0,1,.234-.067A2.748,2.748,0,0,1,357.951-.68" fill="#d1d3d4"/>
            <path id="Trazado_67714" data-name="Trazado 67714" d="M1018.034,265.967,836.361,320.692l.066.176L1018.1,266.147Z" fill="#939598"/>
            <path id="Trazado_67715" data-name="Trazado 67715" d="M840.08,319.672a3.362,3.362,0,0,1-2.1,4.268,3.169,3.169,0,0,1-.333.1,4.03,4.03,0,0,1-4.941-2.147,3.357,3.357,0,0,1,2.429-4.363,4.036,4.036,0,0,1,4.941,2.147" fill="#939598"/>
            <path id="Trazado_67716" data-name="Trazado 67716" d="M1021.756,264.948a3.366,3.366,0,0,1-2.1,4.273c-.108.037-.219.068-.33.094a4.03,4.03,0,0,1-4.941-2.147,3.361,3.361,0,0,1,2.429-4.367,4.037,4.037,0,0,1,4.941,2.147" fill="#939598"/>
            <path id="Trazado_67717" data-name="Trazado 67717" d="M957.013,284.446a1.672,1.672,0,0,1-1.04,2.124,1.616,1.616,0,0,1-.168.048,2.007,2.007,0,0,1-2.458-1.068,1.673,1.673,0,0,1,1.041-2.124,1.6,1.6,0,0,1,.167-.048,2.01,2.01,0,0,1,2.458,1.068" fill="#939598"/>
            <path id="Trazado_67718" data-name="Trazado 67718" d="M907.027,299.5a1.123,1.123,0,0,1-.7,1.424c-.033.011-.067.021-.1.029a1.353,1.353,0,0,1-1.644-.716,1.118,1.118,0,0,1,.7-1.418c.036-.012.071-.022.108-.031a1.347,1.347,0,0,1,1.644.712" fill="#939598"/>
            <path id="Trazado_67719" data-name="Trazado 67719" d="M318.6,73.467v.415L428.072,158.3l.233-.235Z" fill="#bcbec0"/>
            <path id="Trazado_67720" data-name="Trazado 67720" d="M423.213,154.35a5.372,5.372,0,0,0,.635,8.23,7.218,7.218,0,0,0,9.313-.561,5.376,5.376,0,0,0-.635-8.23,7.22,7.22,0,0,0-9.313.561" fill="#bcbec0"/>
            <path id="Trazado_67721" data-name="Trazado 67721" d="M332.853,84.67a1.78,1.78,0,0,0,.212,2.73,2.389,2.389,0,0,0,3.089-.187,1.783,1.783,0,0,0,.037-2.52,1.888,1.888,0,0,0-.245-.21,2.4,2.4,0,0,0-3.093.187" fill="#bcbec0"/>
            <path id="Trazado_67722" data-name="Trazado 67722" d="M793.188-2.271,886.2,69.461l.1-.1L793.429-2.271Z" fill="#fff"/>
            <path id="Trazado_67723" data-name="Trazado 67723" d="M884.079,67.724a2.355,2.355,0,0,0-.049,3.33,2.3,2.3,0,0,0,.323.277,3.171,3.171,0,0,0,4.09-.246,2.359,2.359,0,0,0-.282-3.607,3.164,3.164,0,0,0-4.081.246" fill="#fff"/>
            <path id="Trazado_67724" data-name="Trazado 67724" d="M814.865,14.353a1.173,1.173,0,0,0-.023,1.658,1.224,1.224,0,0,0,.16.136,1.569,1.569,0,0,0,2.03-.125,1.167,1.167,0,0,0,.025-1.651,1.2,1.2,0,0,0-.162-.14,1.571,1.571,0,0,0-2.03.121" fill="#fff"/>
            <path id="Trazado_67725" data-name="Trazado 67725" d="M844.452,37.166a.777.777,0,0,0,.091,1.2,1.059,1.059,0,0,0,1.358-.077.783.783,0,0,0,.009-1.107.807.807,0,0,0-.109-.093,1.045,1.045,0,0,0-1.354.081" fill="#fff"/>
            <path id="Trazado_67756" data-name="Trazado 67756" d="M672.834,21.311l.14-.143L822.6,136.553l-.141.142Z" fill="#fff"/>
            <path id="Trazado_67726" data-name="Trazado 67726" d="M819.49,134.28a3.271,3.271,0,0,0,.386,5.02,4.4,4.4,0,0,0,5.684-.341,3.282,3.282,0,0,0,.058-4.642,3.354,3.354,0,0,0-.444-.381,4.412,4.412,0,0,0-5.684.345" fill="#fff"/>
            <path id="Trazado_67727" data-name="Trazado 67727" d="M669.868,18.9a3.27,3.27,0,0,0,.386,5.02,4.4,4.4,0,0,0,5.684-.341,3.282,3.282,0,0,0,.052-4.641,3.322,3.322,0,0,0-.442-.379,4.406,4.406,0,0,0-5.68.341" fill="#fff"/>
            <path id="Trazado_67728" data-name="Trazado 67728" d="M723.184,60.015a1.632,1.632,0,0,0-.026,2.308,1.591,1.591,0,0,0,.226.192,2.2,2.2,0,0,0,2.827-.169,1.637,1.637,0,0,0-.2-2.5,2.2,2.2,0,0,0-2.827.169" fill="#fff"/>
            <path id="Trazado_67729" data-name="Trazado 67729" d="M764.355,91.762a1.082,1.082,0,0,0,.129,1.666,1.46,1.46,0,0,0,1.885-.11,1.089,1.089,0,0,0-.129-1.666,1.46,1.46,0,0,0-1.885.11" fill="#fff"/>
            <path id="Trazado_67730" data-name="Trazado 67730" d="M1047.361,271.5a4.874,4.874,0,0,0-5.036,3.519c-.536,2.374,1.208,4.686,3.9,5.163a5.423,5.423,0,0,0,1.138.081Z" fill="#d1d3d4"/>
            <path id="Trazado_67731" data-name="Trazado 67731" d="M987.555,203.413,961.929,316.751l-.137-.026,25.622-113.338Z" fill="#939598"/>
            <path id="Trazado_67732" data-name="Trazado 67732" d="M962.378,314.439a2.653,2.653,0,0,0-3.118,1.842,2.369,2.369,0,0,0,1.934,2.736c.048.008.1.015.146.02a2.66,2.66,0,0,0,3.122-1.838,2.378,2.378,0,0,0-1.95-2.74c-.044-.008-.089-.014-.134-.019" fill="#939598"/>
            <path id="Trazado_67733" data-name="Trazado 67733" d="M988,201.1a2.658,2.658,0,0,0-3.122,1.838,2.371,2.371,0,0,0,1.937,2.739c.047.008.1.015.143.02a2.661,2.661,0,0,0,3.122-1.838,2.37,2.37,0,0,0-1.933-2.738c-.049-.009-.1-.015-.147-.021" fill="#939598"/>
            <path id="Trazado_67734" data-name="Trazado 67734" d="M978.873,241.489a1.321,1.321,0,0,0-1.553.914,1.178,1.178,0,0,0,.96,1.362c.024,0,.049.008.074.01a1.322,1.322,0,0,0,1.553-.914,1.18,1.18,0,0,0-.964-1.362l-.07-.01" fill="#939598"/>
            <path id="Trazado_67735" data-name="Trazado 67735" d="M971.823,272.675a.888.888,0,0,0-1.038.609.793.793,0,0,0,.653.912l.04,0a.884.884,0,0,0,1.034-.613.786.786,0,0,0-.642-.907l-.047-.007" fill="#939598"/>
            <path id="Trazado_67736" data-name="Trazado 67736" d="M971.146-2.271,932.74,167.616l.324.055L971.482-2.271Z" fill="#fff"/>
            <path id="Trazado_67737" data-name="Trazado 67737" d="M934.107,162.316c-3.33-.587-6.569,1.317-7.233,4.264s1.495,5.8,4.825,6.388,6.568-1.317,7.233-4.26-1.495-5.8-4.825-6.392" fill="#fff"/>
            <path id="Trazado_67738" data-name="Trazado 67738" d="M969.511-2.272a3.167,3.167,0,0,0,1.623.8,3.279,3.279,0,0,0,2.815-.8Z" fill="#fff"/>
            <path id="Trazado_67739" data-name="Trazado 67739" d="M955.992,65.513a2.044,2.044,0,0,0-2.4,1.416,1.82,1.82,0,0,0,1.482,2.1c.039.006.078.012.118.016a2.043,2.043,0,0,0,2.4-1.416,1.823,1.823,0,0,0-1.49-2.105c-.037-.007-.073-.012-.11-.016" fill="#fff"/>
            <path id="Trazado_67740" data-name="Trazado 67740" d="M876.878,81.117,835.632,263.562l-.22-.04L876.654,81.077Z" fill="#939598"/>
            <path id="Trazado_67741" data-name="Trazado 67741" d="M836.36,259.84a4.279,4.279,0,0,0-5.024,2.961,3.821,3.821,0,0,0,3.125,4.409c.075.012.15.023.226.031a4.286,4.286,0,0,0,5.024-2.961,3.816,3.816,0,0,0-3.115-4.407c-.078-.013-.157-.024-.236-.033" fill="#939598"/>
            <path id="Trazado_67742" data-name="Trazado 67742" d="M877.606,77.4a4.285,4.285,0,0,0-5.028,2.961,3.819,3.819,0,0,0,3.123,4.408c.075.013.151.024.228.032a4.283,4.283,0,0,0,5.024-2.961,3.816,3.816,0,0,0-3.113-4.407c-.077-.013-.156-.024-.234-.033" fill="#939598"/>
            <path id="Trazado_67743" data-name="Trazado 67743" d="M862.9,142.41a2.135,2.135,0,0,0-2.5,1.471,1.9,1.9,0,0,0,1.553,2.193c.038.007.077.012.116.016a2.124,2.124,0,0,0,2.5-1.471,1.9,1.9,0,0,0-1.553-2.193c-.037-.006-.075-.012-.112-.016" fill="#939598"/>
            <path id="Trazado_67744" data-name="Trazado 67744" d="M851.556,192.61a1.418,1.418,0,0,0-1.665.983,1.263,1.263,0,0,0,1.029,1.46c.026.005.053.008.08.011a1.42,1.42,0,0,0,1.669-.983,1.267,1.267,0,0,0-1.038-1.46c-.025-.005-.05-.008-.075-.011" fill="#939598"/>
            <path id="Trazado_67745" data-name="Trazado 67745" d="M905.844-2.271l101.264,78.084.3-.308L906.55-2.271Z" fill="#fff"/>
            <path id="Trazado_67747" data-name="Trazado 67747" d="M350.452-2.271,707.5,273.073l.374-.378L351.315-2.271Z" fill="#fff"/>
            <path id="Trazado_67750" data-name="Trazado 67750" d="M554.9,155.058a2.852,2.852,0,0,0,.336,4.374,3.834,3.834,0,0,0,4.953-.3,2.854,2.854,0,0,0,.058-4.036,2.956,2.956,0,0,0-.394-.338,3.831,3.831,0,0,0-4.953.3" fill="#fff"/>
            <path id="Trazado_67751" data-name="Trazado 67751" d="M336.907,159.152,581.521,347.785l-.232.239L336.674,159.383Z" fill="#fff"/>
            <path id="Trazado_67752" data-name="Trazado 67752" d="M576.443,344.077a5.358,5.358,0,0,0-.106,7.577,5.412,5.412,0,0,0,.737.631,7.2,7.2,0,0,0,9.292-.558,5.365,5.365,0,0,0-.635-8.208,7.2,7.2,0,0,0-9.288.558" fill="#fff"/>
            <path id="Trazado_67753" data-name="Trazado 67753" d="M331.832,155.443a5.358,5.358,0,0,0-.1,7.578,5.256,5.256,0,0,0,.735.63,7.2,7.2,0,0,0,9.292-.558,5.365,5.365,0,0,0-.635-8.208,7.194,7.194,0,0,0-9.288.558" fill="#fff"/>
            <path id="Trazado_67754" data-name="Trazado 67754" d="M418.995,222.662a2.666,2.666,0,0,0-.048,3.769,2.634,2.634,0,0,0,.364.311,3.581,3.581,0,0,0,4.621-.275,2.672,2.672,0,0,0-.316-4.084,3.586,3.586,0,0,0-4.621.279" fill="#fff"/>
            <path id="Trazado_67755" data-name="Trazado 67755" d="M486.3,274.565a1.778,1.778,0,0,0,.208,2.726,2.393,2.393,0,0,0,3.085-.187,1.779,1.779,0,0,0,.028-2.517,1.809,1.809,0,0,0-.24-.206,2.388,2.388,0,0,0-3.081.183" fill="#fff"/>
          </g>
        </g>
      </g>
    </g>
  </g>
</svg>
